<?xml version="1.0" encoding="utf-8"?>
<!-- Generator: Adobe Illustrator 15.0.0, SVG Export Plug-In . SVG Version: 6.00 Build 0)  -->
<!DOCTYPE svg PUBLIC "-//W3C//DTD SVG 1.1//EN" "http://www.w3.org/Graphics/SVG/1.1/DTD/svg11.dtd">
<svg version="1.1" id="Layer_1" xmlns="http://www.w3.org/2000/svg" xmlns:xlink="http://www.w3.org/1999/xlink" x="0px" y="0px"
	 width="64px" height="64px" viewBox="0 0 64 64" enable-background="new 0 0 64 64" xml:space="preserve">
<title>calendar_2-01-01</title>
<path d="M33.38,30.08c-0.374-0.154-0.805-0.067-1.09,0.22l-2,2c-0.42,0.359-0.469,0.99-0.11,1.41c0.359,0.42,0.99,0.469,1.41,0.11
	l0.11-0.11l0.3-0.3V45c0,0.553,0.448,1,1,1c0.553,0,1-0.447,1-1V31C33.998,30.596,33.754,30.233,33.38,30.08z"/>
<path d="M52,8H12c-2.209,0-4,1.791-4,4v40c0,2.209,1.791,4,4,4h40c2.209,0,4-1.791,4-4V12C56,9.791,54.209,8,52,8z M54,42v10
	c0,1.104-0.896,2-2,2H12c-1.104,0-2-0.896-2-2V22h44V42z M54,20H10v-8c0-1.104,0.896-2,2-2h40c1.104,0,2,0.896,2,2V20z"/>
<path d="M21,18c1.657,0,3-1.343,3-3s-1.343-3-3-3s-3,1.343-3,3S19.343,18,21,18z M21,14c0.552,0,1,0.448,1,1s-0.448,1-1,1
	s-1-0.448-1-1S20.448,14,21,14z"/>
<path d="M43,18c1.656,0,3-1.343,3-3s-1.344-3-3-3s-3,1.343-3,3S41.344,18,43,18z M43,14c0.553,0,1,0.448,1,1s-0.447,1-1,1
	s-1-0.448-1-1S42.447,14,43,14z"/>
</svg>
