<?xml version="1.0" encoding="utf-8"?>
<!-- Generator: Adobe Illustrator 15.0.0, SVG Export Plug-In . SVG Version: 6.00 Build 0)  -->
<!DOCTYPE svg PUBLIC "-//W3C//DTD SVG 1.1//EN" "http://www.w3.org/Graphics/SVG/1.1/DTD/svg11.dtd">
<svg version="1.1" id="Layer_1" xmlns="http://www.w3.org/2000/svg" xmlns:xlink="http://www.w3.org/1999/xlink" x="0px" y="0px"
	 width="64px" height="64px" viewBox="0 0 64 64" enable-background="new 0 0 64 64" xml:space="preserve">
<title>scroll</title>
<path id="scroll" d="M54,6H14c-2.209,0-4,1.791-4,4v42H7c-0.552,0-1,0.447-1,1v3c0,2.209,1.791,4,4,4h38c2.209,0,4-1.791,4-4V14h5
	c0.553,0,1-0.448,1-1v-3C58,7.791,56.209,6,54,6z M10,58c-1.104,0-2-0.896-2-2v-2h36v2c0.002,0.703,0.188,1.393,0.54,2H10z M50,56
	c0,1.104-0.896,2-2,2s-2-0.896-2-2v-3c0-0.553-0.447-1-1-1H12V10c0-1.104,0.896-2,2-2h36.561C50.201,8.605,50.008,9.296,50,10V56z
	 M56,12h-4v-2c0-1.104,0.896-2,2-2s2,0.896,2,2V12z M43,20H19c-0.552,0-1-0.448-1-1s0.448-1,1-1h24c0.553,0,1,0.448,1,1
	S43.553,20,43,20z M43,26H19c-0.552,0-1-0.448-1-1s0.448-1,1-1h24c0.553,0,1,0.448,1,1S43.553,26,43,26z M43,32H19
	c-0.552,0-1-0.448-1-1s0.448-1,1-1h24c0.553,0,1,0.448,1,1S43.553,32,43,32z M43,38H19c-0.552,0-1-0.447-1-1s0.448-1,1-1h24
	c0.553,0,1,0.447,1,1S43.553,38,43,38z M35,44H19c-0.552,0-1-0.447-1-1s0.448-1,1-1h16c0.553,0,1,0.447,1,1S35.553,44,35,44z"/>
</svg>
